<svg width="20" height="20" viewBox="0 0 20 20" fill="none" xmlns="http://www.w3.org/2000/svg">
<g id="google-fill 1" clip-path="url(#clip0_1044_151)">
<path id="Vector" d="M2.55332 6.25829C3.24666 4.87766 4.3103 3.71705 5.62535 2.90618C6.9404 2.09532 8.45504 1.66614 9.99999 1.66663C12.2458 1.66663 14.1325 2.49163 15.575 3.83746L13.1858 6.22746C12.3217 5.40163 11.2233 4.98079 9.99999 4.98079C7.82916 4.98079 5.99166 6.44746 5.33749 8.41663C5.17082 8.91663 5.07582 9.44996 5.07582 9.99996C5.07582 10.55 5.17082 11.0833 5.33749 11.5833C5.99249 13.5533 7.82916 15.0191 9.99999 15.0191C11.1208 15.0191 12.075 14.7233 12.8217 14.2233C13.2545 13.9383 13.6251 13.5685 13.911 13.1362C14.1969 12.7039 14.3922 12.2182 14.485 11.7083H9.99999V8.48496H17.8483C17.9467 9.02996 18 9.59829 18 10.1891C18 12.7275 17.0917 14.8641 15.515 16.3141C14.1367 17.5875 12.25 18.3333 9.99999 18.3333C8.90552 18.3337 7.82169 18.1185 6.81044 17.6999C5.7992 17.2812 4.88037 16.6674 4.10646 15.8935C3.33255 15.1196 2.71874 14.2008 2.3001 13.1895C1.88147 12.1783 1.66622 11.0944 1.66666 9.99996C1.66666 8.65496 1.98832 7.38329 2.55332 6.25829Z" fill="black"/>
</g>
<defs>
<clipPath id="clip0_1044_151">
<rect width="20" height="20" fill="white"/>
</clipPath>
</defs>
</svg>
