<svg width="20" height="20" viewBox="0 0 20 20" fill="none" xmlns="http://www.w3.org/2000/svg">
<g id="google-fill 1" clip-path="url(#clip0_1044_222)">
<path id="Vector" d="M2.55329 6.25829C3.24663 4.87766 4.31027 3.71705 5.62532 2.90618C6.94037 2.09532 8.45501 1.66614 9.99996 1.66663C12.2458 1.66663 14.1325 2.49163 15.575 3.83746L13.1858 6.22746C12.3216 5.40163 11.2233 4.98079 9.99996 4.98079C7.82913 4.98079 5.99163 6.44746 5.33746 8.41663C5.17079 8.91663 5.07579 9.44996 5.07579 9.99996C5.07579 10.55 5.17079 11.0833 5.33746 11.5833C5.99246 13.5533 7.82913 15.0191 9.99996 15.0191C11.1208 15.0191 12.075 14.7233 12.8216 14.2233C13.2545 13.9383 13.6251 13.5685 13.911 13.1362C14.1969 12.7039 14.3921 12.2182 14.485 11.7083H9.99996V8.48496H17.8483C17.9466 9.02996 18 9.59829 18 10.1891C18 12.7275 17.0916 14.8641 15.515 16.3141C14.1366 17.5875 12.25 18.3333 9.99996 18.3333C8.90549 18.3337 7.82166 18.1185 6.81041 17.6999C5.79917 17.2812 4.88034 16.6674 4.10643 15.8935C3.33252 15.1196 2.71871 14.2008 2.30007 13.1895C1.88144 12.1783 1.66619 11.0944 1.66663 9.99996C1.66663 8.65496 1.98829 7.38329 2.55329 6.25829Z" fill="#FBFAFA"/>
</g>
<defs>
<clipPath id="clip0_1044_222">
<rect width="20" height="20" fill="white"/>
</clipPath>
</defs>
</svg>
