<svg width="20" height="20" viewBox="0 0 20 20" fill="none" xmlns="http://www.w3.org/2000/svg">
<g id="twitter-fill 1" clip-path="url(#clip0_1044_148)">
<path id="Vector" d="M18.4683 4.71339C17.8321 4.99481 17.1575 5.17962 16.4667 5.26173C17.1948 4.82626 17.7398 4.14091 18 3.33339C17.3167 3.74006 16.5675 4.02506 15.7867 4.17923C15.2622 3.61804 14.567 3.24586 13.8091 3.12055C13.0513 2.99523 12.2733 3.1238 11.5961 3.48627C10.9188 3.84874 10.3803 4.4248 10.0643 5.12489C9.74821 5.82498 9.6723 6.60988 9.84835 7.35756C8.4626 7.28811 7.10696 6.928 5.86942 6.30061C4.63188 5.67323 3.54012 4.7926 2.66501 3.71589C2.35526 4.24794 2.19248 4.85275 2.19335 5.46839C2.19335 6.67673 2.80835 7.74423 3.74335 8.36923C3.19002 8.35181 2.64887 8.20238 2.16501 7.93339V7.97673C2.16518 8.78148 2.44365 9.56141 2.95322 10.1843C3.46279 10.8071 4.17208 11.2346 4.96085 11.3942C4.44719 11.5334 3.9086 11.5539 3.38585 11.4542C3.60824 12.1469 4.04169 12.7527 4.62551 13.1868C5.20933 13.6209 5.91429 13.8616 6.64168 13.8751C5.91875 14.4428 5.09099 14.8625 4.20575 15.1102C3.3205 15.3579 2.39512 15.4286 1.48251 15.3184C3.07559 16.3429 4.93009 16.8868 6.82418 16.8851C13.235 16.8851 16.7408 11.5742 16.7408 6.96839C16.7408 6.81839 16.7367 6.66673 16.73 6.51839C17.4124 6.0252 18.0013 5.41424 18.4692 4.71423L18.4683 4.71339Z" fill="black"/>
</g>
<defs>
<clipPath id="clip0_1044_148">
<rect width="20" height="20" fill="white"/>
</clipPath>
</defs>
</svg>
