<svg width="20" height="20" viewBox="0 0 20 20" fill="none" xmlns="http://www.w3.org/2000/svg">
<g id="twitter-fill 1" clip-path="url(#clip0_1044_219)">
<path id="Vector" d="M18.4684 4.71339C17.8322 4.99481 17.1575 5.17962 16.4667 5.26173C17.1948 4.82626 17.7398 4.14091 18 3.33339C17.3167 3.74006 16.5675 4.02506 15.7867 4.17923C15.2622 3.61804 14.567 3.24586 13.8092 3.12055C13.0513 2.99523 12.2733 3.1238 11.5961 3.48627C10.9189 3.84874 10.3804 4.4248 10.0643 5.12489C9.74824 5.82498 9.67233 6.60988 9.84838 7.35756C8.46263 7.28811 7.10699 6.928 5.86945 6.30061C4.63191 5.67323 3.54015 4.7926 2.66504 3.71589C2.35529 4.24794 2.19251 4.85275 2.19338 5.46839C2.19338 6.67673 2.80838 7.74423 3.74338 8.36923C3.19005 8.35181 2.6489 8.20238 2.16504 7.93339V7.97673C2.16521 8.78148 2.44368 9.56141 2.95325 10.1843C3.46282 10.8071 4.17211 11.2346 4.96088 11.3942C4.44722 11.5334 3.90863 11.5539 3.38588 11.4542C3.60827 12.1469 4.04172 12.7527 4.62554 13.1868C5.20936 13.6209 5.91432 13.8616 6.64171 13.8751C5.91878 14.4428 5.09102 14.8625 4.20578 15.1102C3.32053 15.3579 2.39515 15.4286 1.48254 15.3184C3.07563 16.3429 4.93012 16.8868 6.82421 16.8851C13.235 16.8851 16.7409 11.5742 16.7409 6.96839C16.7409 6.81839 16.7367 6.66673 16.73 6.51839C17.4124 6.0252 18.0014 5.41424 18.4692 4.71423L18.4684 4.71339Z" fill="#FBFAFA"/>
</g>
<defs>
<clipPath id="clip0_1044_219">
<rect width="20" height="20" fill="white"/>
</clipPath>
</defs>
</svg>
